<svg id="Capa_1" enable-background="new 0 0 512.011 512.011" height="512" viewBox="0 0 512.011 512.011" width="512" xmlns="http://www.w3.org/2000/svg"><path d="m197.706 56.881-74.44 13.13-.01.09 27.75 55.95 86.67-15.28v-.01z" fill="#8690af"/><path d="m151.006 160.011c0-8.515 0-51.5 0-60 0-16.739-13.612-30-30-30h-70c-11.05 0-20 8.95-20 20v130h180l30-60z" fill="#ecf2f3"/><path d="m31.006 220.011v262c0 11.05 8.95 20 20 20h410c11.05 0 20-8.95 20-20v-262c-8.504 0-436.55 0-450 0z" fill="#ff7b79"/><path d="m481.006 160.011v60h-90l30-60z" fill="#8690af"/><path d="m463.606 10.001 10.42 59.09-59.09 10.42-39.96-53.88z" fill="#ecf2f3"/><path d="m421.006 160.011-30 60h-90l30-60z" fill="#ecf2f3"/><path d="m374.976 25.631 39.96 53.88-88.63 15.63-39.97-53.88z" fill="#8690af"/><path d="m331.006 160.011-30 60h-90l30-60z" fill="#8690af"/><path d="m286.336 41.261 39.97 53.88-88.63 15.63v-.01l-39.97-53.88z" fill="#ecf2f3"/><circle cx="91.006" cy="130.011" r="10"/><path d="m121.006 293.011h270c5.522 0 10-4.477 10-10s-4.478-10-10-10h-270c-5.523 0-10 4.477-10 10s4.477 10 10 10z"/><path d="m391.006 449.011c5.522 0 10-4.477 10-10s-4.478-10-10-10h-50v-73h50c5.522 0 10-4.477 10-10s-4.478-10-10-10h-270c-5.523 0-10 4.477-10 10s4.477 10 10 10h50v73h-50c-5.523 0-10 4.477-10 10s4.477 10 10 10zm-200-93h130v73h-130z"/><circle cx="256.006" cy="502.011" r="10"/><path d="m301.006 512.011h160c16.542 0 30-13.458 30-30v-322c0-5.523-4.478-10-10-10h-320v-15.569c12.883-2.272 301.644-53.191 314.756-55.503 5.439-.959 9.071-6.146 8.111-11.585l-10.42-59.09c-.957-5.433-6.145-9.07-11.584-8.111-12.937 2.281-328.397 57.904-339.62 59.883-1.198-.039-10.731-.015-71.243-.025-16.542 0-30 13.458-30 30v392c0 16.542 13.458 30 30 30h160c5.523 0 10-4.477 10-10s-4.477-10-10-10h-160c-5.514 0-10-4.486-10-10v-252h430v252c0 5.514-4.486 10-10 10h-160c-5.522 0-10 4.477-10 10s4.477 10 10 10zm16.18-302 20-40h67.639l-20 40zm-90 0 20-40h67.639l-20 40zm-2.361-40-20 40h-43.82v-40zm-72.628-94.947 41.162-7.258 26.649 35.923-59.002 10.404v-14.122c0-9.373-3.301-18.069-8.809-24.947zm129.787-22.884 26.648 35.922-66.602 11.744-26.648-35.923zm88.64-15.629 26.641 35.922-66.611 11.746-26.648-35.921zm91.816 24.429-43.155 7.61-26.641-35.921 62.849-11.082zm-421.434 29.031c0-5.514 4.486-10 10-10h70c11.05 0 20 9.057 20 20v110h-100zm366.18 120 20-40h43.82v40z"/></svg>